<?xml version="1.0" standalone="no"?>
<!DOCTYPE svg PUBLIC "-//W3C//DTD SVG 20010904//EN"
 "http://www.w3.org/TR/2001/REC-SVG-20010904/DTD/svg10.dtd">
<svg version="1.0" xmlns="http://www.w3.org/2000/svg"
 width="1215.000000pt" height="1280.000000pt" viewBox="0 0 1215.000000 1280.000000"
 preserveAspectRatio="xMidYMid meet">
<g transform="translate(0.000000,1280.000000) scale(0.100000,-0.100000)"
fill="#000000" stroke="none">
<path d="M2512 12734 c-34 -36 -98 -120 -142 -187 -118 -183 -130 -199 -143
-194 -7 2 -12 24 -12 55 0 27 -3 53 -7 57 -11 11 -62 -67 -98 -149 -18 -42
-38 -76 -45 -76 -6 0 -25 6 -41 14 -58 29 -231 49 -419 50 -170 0 -187 -2
-305 -32 -68 -18 -138 -32 -155 -32 -41 0 -179 -27 -238 -46 -56 -19 -142 -98
-164 -153 -22 -53 -47 -76 -161 -144 -240 -144 -280 -223 -242 -487 8 -61 12
-68 60 -111 28 -26 84 -69 123 -95 121 -83 178 -147 211 -236 23 -65 26 -82
17 -114 -13 -47 -8 -54 34 -47 l35 6 0 -87 0 -87 26 20 c33 26 50 26 64 2 13
-26 16 -74 6 -143 -4 -32 -4 -58 -1 -58 4 0 20 8 36 17 26 16 31 16 39 3 14
-21 12 -56 -6 -150 -8 -45 -12 -85 -9 -88 3 -4 22 11 41 33 33 39 34 39 49 21
18 -24 20 -112 4 -203 -6 -35 -8 -67 -5 -70 3 -4 16 3 29 14 12 11 28 23 35
27 20 12 39 -48 47 -146 4 -49 11 -88 16 -88 4 0 20 20 35 45 45 78 64 56 64
-77 0 -85 10 -101 44 -69 50 47 71 21 82 -103 4 -42 11 -76 15 -76 5 0 18 14
31 30 12 17 28 30 35 30 15 0 33 -31 33 -57 0 -11 7 -28 15 -39 14 -18 16 -18
50 21 l35 40 19 -22 c10 -12 22 -43 25 -67 9 -57 20 -64 42 -29 38 61 66 63
84 7 6 -19 15 -34 19 -34 4 0 22 11 41 25 39 29 53 31 70 10 19 -23 38 -18 55
15 14 28 19 30 50 24 31 -6 35 -3 57 36 20 35 27 40 50 36 22 -4 30 0 47 30
45 76 251 128 251 64 0 -11 -17 -39 -38 -63 -42 -47 -114 -148 -154 -217 -35
-60 -137 -185 -168 -207 -20 -14 -42 -17 -113 -15 -87 3 -90 2 -140 -31 -49
-33 -61 -36 -197 -51 -122 -13 -154 -21 -201 -45 -31 -16 -76 -35 -99 -41 -23
-6 -60 -28 -85 -51 -35 -32 -49 -39 -83 -39 -35 0 -44 -5 -71 -39 -44 -56 -61
-111 -61 -202 0 -67 3 -81 23 -103 12 -13 32 -27 45 -31 20 -6 25 -1 40 34 21
50 36 52 58 6 20 -43 49 -62 69 -45 8 6 21 34 30 61 9 27 21 49 26 49 5 0 15
-15 23 -34 20 -47 59 -72 91 -58 39 18 58 68 64 170 7 108 6 107 135 172 110
56 121 55 157 -25 20 -45 38 -69 58 -80 65 -33 95 -9 111 90 5 31 14 63 20 70
5 7 45 15 87 19 43 4 83 12 90 18 10 8 18 6 31 -6 23 -20 46 -21 62 -1 7 8 23
15 37 15 13 0 44 5 68 11 36 9 48 8 67 -5 12 -9 32 -16 44 -16 25 0 134 59
239 130 39 26 93 62 120 80 28 19 78 56 113 82 77 58 105 67 134 42 25 -23 23
-54 -27 -359 -45 -269 -64 -364 -81 -395 -18 -34 -90 -110 -105 -110 -6 0 -46
35 -88 79 -97 100 -162 135 -238 129 -58 -5 -74 -16 -112 -80 l-23 -38 30 6
c24 5 37 -1 77 -38 156 -141 168 -160 112 -166 -37 -5 -168 33 -230 65 -43 23
-65 27 -122 27 -107 -1 -152 -18 -212 -79 -37 -36 -53 -60 -53 -78 0 -30 20
-36 40 -12 17 20 32 19 53 -5 13 -16 29 -20 74 -20 77 0 183 -16 196 -29 20
-20 -7 -31 -146 -61 -215 -46 -270 -79 -332 -202 -38 -77 -43 -119 -21 -173
19 -45 39 -44 66 3 12 20 49 57 83 82 87 64 241 140 282 140 19 0 35 -3 35 -6
0 -3 -18 -26 -39 -52 -65 -77 -86 -151 -61 -216 13 -35 34 -33 58 7 17 30 25
35 74 40 34 3 82 19 124 40 39 19 126 56 194 82 69 25 163 68 210 95 47 27
116 63 153 79 153 69 283 175 331 269 14 29 46 82 70 119 67 105 189 345 246
483 64 156 68 161 112 128 153 -116 1152 -618 1231 -618 8 0 35 -9 60 -20 30
-13 64 -20 98 -19 47 2 54 -1 78 -29 44 -52 386 -171 494 -172 18 0 52 -9 76
-20 54 -25 61 -25 61 0 0 29 43 26 118 -10 35 -17 69 -30 75 -30 29 -1 40 -24
62 -126 43 -208 83 -332 141 -445 32 -60 71 -126 89 -146 17 -21 47 -67 67
-103 49 -91 162 -284 187 -319 44 -62 17 -77 -70 -40 -42 18 -63 39 -130 125
l-80 104 -98 0 c-81 0 -104 -4 -141 -22 -71 -37 -83 -112 -12 -86 17 7 34 10
36 7 3 -3 8 -31 12 -64 l7 -58 -46 6 c-25 4 -87 25 -139 48 -196 86 -304 111
-493 112 -136 1 -142 1 -188 -26 -53 -31 -97 -84 -97 -115 0 -12 2 -22 4 -22
2 0 38 16 79 36 42 20 81 33 87 29 5 -3 10 -23 10 -44 0 -53 34 -67 128 -56
115 14 142 10 243 -35 52 -23 123 -52 159 -65 125 -44 230 -90 230 -102 0 -32
-121 -24 -315 22 -55 13 -118 27 -140 30 -22 4 -67 15 -100 25 -80 25 -297 60
-371 60 -98 0 -238 -81 -280 -161 -16 -33 -19 -109 -3 -109 6 0 36 25 68 55
32 30 63 55 69 55 6 0 18 -13 27 -29 8 -16 29 -40 47 -53 31 -22 41 -23 198
-23 91 0 201 -6 245 -13 44 -6 161 -16 260 -22 125 -7 183 -14 193 -23 19 -20
-2 -34 -79 -51 -35 -7 -118 -29 -184 -47 l-120 -34 -315 3 -315 3 -61 -30
c-78 -37 -139 -92 -155 -138 -15 -46 -7 -128 16 -153 32 -35 52 -25 69 33 26
89 60 106 124 62 45 -30 59 -31 142 -3 58 20 87 22 285 24 248 1 328 12 493
69 56 19 148 51 205 70 56 20 138 40 182 45 135 15 206 -15 103 -44 -29 -8
-102 -29 -163 -46 -125 -35 -193 -72 -276 -148 -43 -39 -62 -65 -73 -100 -8
-26 -22 -68 -32 -93 -16 -40 -16 -52 -5 -89 14 -48 85 -130 112 -130 27 0 32
16 13 45 -18 27 -13 64 11 89 8 8 40 22 70 31 45 13 61 24 86 58 50 69 154
130 318 188 51 17 111 45 134 60 23 16 49 29 58 29 18 0 136 45 153 58 6 5 22
13 36 17 46 14 154 99 242 190 47 49 98 101 113 115 118 112 144 141 163 182
31 63 45 162 40 279 -4 94 -5 98 -36 127 -36 34 -39 52 -16 87 13 20 14 32 4
72 -6 26 -15 66 -20 88 -5 22 -14 53 -20 69 -17 44 -1 53 62 33 29 -9 97 -23
150 -32 125 -20 134 -24 311 -141 81 -54 212 -119 368 -184 194 -81 298 -129
369 -170 185 -108 261 -145 338 -166 53 -15 66 -15 87 -4 23 13 28 11 60 -20
19 -18 39 -48 45 -66 11 -33 53 -72 185 -173 39 -30 106 -84 150 -121 44 -37
91 -73 104 -80 14 -7 41 -28 60 -47 20 -18 55 -50 77 -71 33 -30 44 -48 53
-92 11 -49 43 -117 199 -410 121 -228 179 -537 152 -805 -20 -199 -123 -669
-176 -801 -13 -33 -24 -68 -24 -77 0 -9 -5 -19 -10 -22 -5 -3 -10 -13 -10 -22
0 -58 -174 -371 -288 -518 -79 -103 -128 -149 -273 -259 -124 -94 -175 -118
-348 -162 -74 -19 -138 -37 -143 -40 -5 -3 -48 -12 -96 -20 -104 -17 -590 -20
-673 -4 -30 6 -119 22 -199 36 -79 14 -169 34 -200 44 -30 10 -91 28 -135 40
-149 40 -240 73 -340 123 -55 27 -156 72 -224 99 -69 27 -183 82 -255 122 -72
40 -243 133 -381 206 -137 73 -299 165 -360 205 -105 68 -304 163 -460 218
-38 14 -146 54 -240 90 -200 77 -862 307 -967 336 -40 11 -134 34 -209 50 -75
16 -153 36 -173 45 -69 29 -306 86 -746 179 -242 51 -247 52 -415 51 -93 0
-237 -8 -320 -17 -82 -9 -204 -21 -270 -27 -66 -6 -158 -20 -205 -30 -47 -10
-125 -26 -175 -35 -103 -19 -297 -95 -403 -158 -123 -73 -323 -210 -427 -294
-230 -185 -377 -347 -505 -557 -36 -59 -94 -153 -129 -209 -87 -138 -145 -257
-170 -347 -12 -41 -30 -102 -41 -135 -27 -83 -47 -190 -60 -320 -7 -60 -16
-130 -22 -155 -28 -128 -46 -488 -29 -590 5 -36 15 -121 21 -190 21 -245 48
-383 125 -655 14 -49 35 -133 46 -185 12 -52 31 -113 44 -135 12 -22 39 -80
60 -130 55 -135 160 -331 223 -415 114 -153 304 -330 353 -330 19 0 21 4 16
37 -9 50 -76 146 -190 270 -51 55 -112 132 -134 170 -62 105 -200 384 -216
439 -8 27 -31 101 -51 165 -19 63 -43 167 -51 230 -9 63 -25 160 -36 217 -11
57 -26 147 -34 200 -8 53 -19 124 -25 157 -14 77 -14 437 0 490 6 22 12 72 14
110 4 100 88 463 136 590 158 421 470 851 852 1176 94 80 234 157 443 244 162
67 260 99 276 89 5 -3 29 7 53 21 53 31 183 49 466 65 376 21 596 9 885 -45
170 -32 277 -64 428 -126 130 -54 272 -109 427 -164 85 -30 261 -100 315 -125
11 -5 55 -23 98 -39 43 -17 142 -62 220 -100 78 -38 153 -72 167 -76 42 -12
326 -143 505 -232 93 -47 253 -136 355 -197 102 -62 232 -139 290 -170 58 -32
166 -98 240 -146 166 -108 720 -389 847 -430 21 -7 70 -30 108 -51 93 -50 201
-80 430 -119 105 -18 193 -34 197 -37 24 -14 338 -33 558 -33 301 0 507 18
616 55 175 59 447 197 650 332 156 103 226 169 360 343 44 58 89 112 98 120
22 17 142 186 181 253 15 26 40 54 56 62 23 12 32 30 54 99 14 47 29 88 34 91
6 3 17 -5 25 -17 26 -37 37 -10 57 147 23 185 38 210 80 135 13 -22 28 -39 33
-37 6 2 12 37 14 77 2 41 8 80 14 87 6 7 26 13 46 13 l35 0 -6 43 c-3 23 -9
61 -13 85 -8 50 4 54 48 17 30 -25 48 -32 48 -17 0 4 -13 39 -29 76 -34 81
-32 100 12 90 30 -6 30 -6 23 27 -3 19 -27 69 -51 111 -64 111 -60 119 31 67
33 -19 54 -26 54 -18 0 7 -22 43 -49 80 -27 37 -54 76 -60 88 -19 34 8 26 51
-16 21 -20 38 -32 38 -26 0 6 -13 45 -30 86 -40 101 -40 128 2 91 37 -35 31
14 -17 118 -26 57 -49 111 -52 121 -9 28 21 20 68 -19 44 -36 99 -69 99 -59 0
4 -29 47 -65 97 -84 118 -87 141 -10 93 72 -44 73 -31 5 55 -27 34 -50 66 -50
70 0 10 26 20 51 20 10 0 19 4 19 8 0 5 -25 41 -55 81 -30 40 -53 77 -50 82 3
5 26 6 50 2 25 -3 45 -4 45 -1 0 2 -18 29 -40 58 -58 77 -52 93 24 64 29 -11
17 11 -55 96 -73 87 -97 125 -86 136 3 4 29 1 57 -6 28 -7 54 -9 57 -6 9 8
-61 79 -164 168 -116 100 -109 116 21 51 42 -20 79 -34 83 -30 4 4 -46 60
-110 125 -64 65 -117 123 -117 130 0 15 15 15 41 1 51 -27 35 5 -44 90 -48 51
-87 97 -87 102 0 15 28 10 91 -17 34 -14 64 -23 67 -19 9 9 -46 60 -123 112
-74 51 -90 77 -54 86 34 9 18 29 -72 84 -182 112 -197 129 -103 117 78 -9 69
7 -40 76 -48 30 -86 60 -84 65 2 6 28 10 58 10 30 0 57 5 59 10 5 13 -36 32
-204 95 -134 49 -176 72 -163 86 4 3 35 -1 70 -9 180 -43 184 -25 12 50 -232
102 -241 113 -98 113 122 0 116 11 -34 60 -73 24 -107 40 -107 50 0 8 10 16
23 18 36 5 26 16 -35 37 -53 18 -58 23 -61 52 -3 34 -30 54 -182 134 -69 37
-60 54 27 55 123 1 110 15 -77 79 -74 25 -139 50 -144 55 -7 7 30 10 101 10
62 0 114 4 118 10 13 21 -54 42 -293 91 -79 16 -148 32 -154 36 -20 11 23 22
93 22 111 1 221 13 211 23 -11 11 -180 38 -242 38 -25 0 -52 5 -60 10 -31 20
14 30 144 30 72 0 126 4 120 8 -9 9 -74 17 -354 43 -69 7 -135 16 -147 20 -45
16 -23 29 50 30 39 0 81 4 92 8 20 9 -3 18 -132 51 -24 6 -43 15 -43 19 0 16
30 21 118 21 82 0 126 10 105 23 -15 10 -140 35 -278 57 -71 11 -145 23 -163
26 -20 3 -32 10 -29 17 2 8 55 16 155 23 83 5 154 13 158 17 22 22 -142 45
-426 61 -179 9 -215 13 -215 26 0 11 25 19 100 32 55 9 123 17 150 18 28 1 59
5 70 10 l20 8 -20 8 c-26 12 -206 11 -370 0 -117 -8 -129 -8 -117 6 14 18 140
43 266 53 74 7 134 21 111 26 -5 2 -53 3 -105 4 -60 0 -112 7 -140 17 -25 9
-103 24 -174 33 -72 9 -140 21 -153 26 -48 18 -21 28 82 31 60 2 106 7 107 13
1 10 -118 49 -184 60 -22 3 -38 12 -38 19 0 16 52 26 143 26 63 0 86 11 52 24
-26 10 -186 34 -310 47 -234 24 -217 47 43 59 97 5 178 9 180 9 2 1 0 6 -3 11
-3 6 -36 10 -73 10 -108 0 -192 18 -244 51 -32 21 -94 42 -204 70 -87 21 -162
43 -167 48 -24 24 10 31 146 32 152 1 216 9 184 22 -26 10 -256 34 -405 43
-200 11 -166 40 66 55 78 6 153 14 165 18 20 8 19 9 -13 14 -19 4 -150 8 -291
10 -141 2 -262 8 -269 12 -21 13 11 25 70 25 30 0 93 3 139 7 92 7 86 18 -16
27 -388 38 -480 49 -490 60 -3 3 -2 9 2 15 4 7 72 11 193 12 103 0 209 4 236
7 124 17 23 44 -231 63 -224 16 -284 23 -284 34 0 6 32 18 73 27 145 35 171
43 175 55 3 7 -14 14 -44 18 -78 11 -84 14 -77 40 5 22 2 23 -58 30 -35 4 -78
13 -96 21 -49 20 -134 34 -276 44 -185 14 -184 26 8 61 233 42 196 54 -164 54
-176 -1 -304 -6 -355 -14 -144 -23 -178 -25 -173 -10 2 8 24 20 49 27 45 14
366 112 452 139 26 8 45 19 41 24 -9 16 -74 10 -269 -25 -354 -63 -378 -65
-360 -36 9 14 174 97 311 155 121 52 140 63 125 78 -10 10 -191 -41 -441 -124
-162 -54 -237 -87 -259 -113 -16 -19 -31 -12 -31 15 0 28 73 76 152 100 59 18
68 24 63 41 -10 28 6 41 121 104 57 31 111 65 120 75 16 18 16 19 -9 19 -37 0
-169 -43 -337 -110 -169 -67 -235 -82 -343 -78 -128 5 -100 34 69 68 115 24
164 38 164 50 0 25 -98 19 -383 -21 -115 -16 -151 -19 -160 -9 -17 16 17 43
155 125 117 70 148 92 148 106 0 5 -37 -5 -82 -22 -408 -154 -448 -166 -448
-140 0 12 171 146 278 216 95 63 118 85 91 85 -33 0 -182 -61 -301 -123 -97
-51 -140 -69 -148 -61 -18 18 43 95 162 202 202 181 253 230 246 237 -8 9 -89
-18 -178 -57 -69 -31 -120 -67 -259 -185 -80 -68 -111 -86 -111 -64 0 12 66
86 232 260 76 80 138 148 138 153 0 19 -29 4 -114 -61 l-91 -69 -107 5 c-60 3
-108 9 -108 14 0 4 20 37 45 73 51 75 55 91 23 80 -24 -7 -36 -16 -137 -102
-34 -29 -81 -62 -103 -73 -57 -29 -159 -49 -257 -49 -65 0 -91 -4 -115 -19
-27 -17 -35 -18 -56 -8 -35 18 -31 39 10 53 19 6 128 42 242 79 199 65 250 86
237 100 -7 6 -151 -5 -334 -25 -207 -23 -238 -24 -233 -9 5 16 253 99 371 124
84 18 98 36 46 54 -57 20 -152 12 -353 -29 -108 -22 -206 -40 -217 -40 -35 0
-20 25 34 56 223 131 277 167 277 185 0 16 -40 4 -165 -50 -60 -26 -126 -54
-145 -61 -19 -7 -84 -38 -143 -67 -107 -53 -109 -54 -135 -37 -41 26 -82 66
-82 81 0 7 12 18 28 24 15 6 58 25 95 41 38 17 71 28 74 24 12 -12 -8 -36 -47
-56 -35 -18 -40 -24 -34 -43 3 -12 8 -23 9 -25 7 -8 53 25 148 107 139 119
230 212 218 224 -11 11 -33 0 -114 -62 -100 -75 -313 -185 -399 -205 -30 -7
-61 16 -52 38 3 8 79 44 169 81 90 37 172 74 182 82 30 24 -149 9 -312 -27
-77 -17 -149 -33 -161 -35 -29 -6 -68 23 -54 40 16 20 147 51 330 80 237 37
336 67 258 79 -239 37 -398 35 -615 -10 -113 -23 -179 -32 -185 -26 -12 12 18
73 83 167 72 104 105 131 251 206 140 71 151 88 48 76 -87 -10 -252 -113 -386
-239 -45 -43 -84 -78 -88 -78 -12 0 -6 47 13 101 24 71 153 356 197 438 19 35
34 69 32 77 -2 7 -30 -16 -66 -52z m5899 -4057 c-1 -12 -15 -9 -19 4 -3 6 1
10 8 8 6 -3 11 -8 11 -12z m2029 -1807 c0 -5 -4 -10 -9 -10 -6 0 -13 5 -16 10
-3 6 1 10 9 10 9 0 16 -4 16 -10z m230 -430 c0 -5 -2 -10 -4 -10 -3 0 -8 5
-11 10 -3 6 -1 10 4 10 6 0 11 -4 11 -10z"/>
<path d="M5290 6570 c0 -18 41 -31 88 -28 l47 4 -37 17 c-41 18 -98 23 -98 7z"/>
</g>
</svg>
